STARTFONT 2.1
FONT -DEC-Terminal-Medium-R-Double Wide--19-140-100-100-C-220-iso8859-2
SIZE 14 100 100
FONTBOUNDINGBOX 22 20 0 -5

STARTPROPERTIES 24
FOUNDRY "Monotype"
FAMILY_NAME "VT"
WEIGHT_NAME "Regular"
SLANT "R"
SETWIDTH_NAME "Double Wide"
ADD_STYLE_NAME ""
PIXEL_SIZE 19
POINT_SIZE 140
RESOLUTION_X 100
RESOLUTION_Y 100
SPACING "C"
AVERAGE_WIDTH 220
CHARSET_REGISTRY "iso8859"
CHARSET_ENCODING "2"
FACE_NAME "VT DoubleWide ISO Latin2"
_DEC_DEVICE_FONTNAMES "PS=vt-dblwide-isolatin2"
COPYRIGHT "Copyright (c) 1993 Monotype Typography Ltd."
CAP_HEIGHT 11
X_HEIGHT 8
WEIGHT 10
QUAD_WIDTH 22
DEFAULT_CHAR 160
FONT_DESCENT 5
FONT_ASCENT 15
ENDPROPERTIES

CHARS 191

STARTCHAR space
ENCODING 32
SWIDTH 1136 0
DWIDTH 22 0
BBX 22 20 0 -5
BITMAP
000000
000000
000000
000000
000000
000000
000000
000000
000000
000000
000000
000000
000000
000000
000000
000000
000000
000000
000000
000000
ENDCHAR

STARTCHAR exclam
ENCODING 33
SWIDTH 1136 0
DWIDTH 22 0
BBX 22 20 0 -5
BITMAP
000000
000000
000000
000000
007800
007800
007800
007800
007800
007800
007800
000000
007800
00FC00
007800
000000
000000
000000
000000
000000
ENDCHAR

STARTCHAR quotedbl
ENCODING 34
SWIDTH 1136 0
DWIDTH 22 0
BBX 22 20 0 -5
BITMAP
000000
000000
078780
078780
078780
078780
078780
078780
000000
000000
000000
000000
000000
000000
000000
000000
000000
000000
000000
000000
ENDCHAR

STARTCHAR numbersign
ENCODING 35
SWIDTH 1136 0
DWIDTH 22 0
BBX 22 20 0 -5
BITMAP
000000
000000
000000
000000
03C3C0
03C3C0
03C3C0
03C3C0
03C3C0
FFFFFC
0F0F00
0F0F00
FFFFFC
0F0F00
0F0F00
0F0F00
0F0F00
0F0F00
000000
000000
ENDCHAR

STARTCHAR dollar
ENCODING 36
SWIDTH 1136 0
DWIDTH 22 0
BBX 22 20 0 -5
BITMAP
000000
000000
001800
001800
007800
01F9E0
0787E0
1E01E0
1E0000
07FF80
0003E0
0001E0
1E01E0
1F87C0
1E7F00
006000
006000
006000
000000
000000
ENDCHAR

STARTCHAR percent
ENCODING 37
SWIDTH 1136 0
DWIDTH 22 0
BBX 22 20 0 -5
BITMAP
000000
000000
000000
000000
1FC000
38E000
306000
38E0E0
1FC700
003800
01CFE0
0E1C70
001830
001C70
000FE0
000000
000000
000000
000000
000000
ENDCHAR

STARTCHAR ampersand
ENCODING 38
SWIDTH 1136 0
DWIDTH 22 0
BBX 22 20 0 -5
BITMAP
000000
000000
000000
000000
00FB00
03C700
038000
038000
01C000
07E3C0
0F7300
0F3B00
0F1F00
0F0F00
07F3C0
000000
000000
000000
000000
000000
ENDCHAR

STARTCHAR quoteright
ENCODING 39
SWIDTH 1136 0
DWIDTH 22 0
BBX 22 20 0 -5
BITMAP
000000
000000
007C00
007800
00F000
01E000
00C000
000000
000000
000000
000000
000000
000000
000000
000000
000000
000000
000000
000000
000000
ENDCHAR

STARTCHAR parenleft
ENCODING 40
SWIDTH 1136 0
DWIDTH 22 0
BBX 22 20 0 -5
BITMAP
000000
000000
000000
000600
001C00
003800
007000
00F000
00E000
01E000
01E000
01E000
00E000
00F000
007000
003800
001C00
000600
000000
000000
ENDCHAR

STARTCHAR parenright
ENCODING 41
SWIDTH 1136 0
DWIDTH 22 0
BBX 22 20 0 -5
BITMAP
000000
000000
000000
018000
00E000
007000
003800
003C00
001C00
001E00
001E00
001E00
001C00
003C00
003800
007000
00E000
018000
000000
000000
ENDCHAR

STARTCHAR asterisk
ENCODING 42
SWIDTH 1136 0
DWIDTH 22 0
BBX 22 20 0 -5
BITMAP
000000
000000
000000
000000
000000
000000
007800
007800
1E79E0
07FF80
01FE00
01FE00
078780
070380
000000
000000
000000
000000
000000
000000
ENDCHAR

STARTCHAR plus
ENCODING 43
SWIDTH 1136 0
DWIDTH 22 0
BBX 22 20 0 -5
BITMAP
000000
000000
000000
000000
000000
007800
007800
007800
007800
1FFFE0
1FFFE0
007800
007800
007800
007800
000000
000000
000000
000000
000000
ENDCHAR

STARTCHAR comma
ENCODING 44
SWIDTH 1136 0
DWIDTH 22 0
BBX 22 20 0 -5
BITMAP
000000
000000
000000
000000
000000
000000
000000
000000
000000
000000
000000
000000
007C00
007800
00F000
00F000
01E000
00C000
000000
000000
ENDCHAR

STARTCHAR minus
ENCODING 45
SWIDTH 1136 0
DWIDTH 22 0
BBX 22 20 0 -5
BITMAP
000000
000000
000000
000000
000000
000000
000000
000000
000000
3FFFF0
3FFFF0
000000
000000
000000
000000
000000
000000
000000
000000
000000
ENDCHAR

STARTCHAR period
ENCODING 46
SWIDTH 1136 0
DWIDTH 22 0
BBX 22 20 0 -5
BITMAP
000000
000000
000000
000000
000000
000000
000000
000000
000000
000000
000000
000000
00FC00
01FE00
00FC00
000000
000000
000000
000000
000000
ENDCHAR

STARTCHAR slash
ENCODING 47
SWIDTH 1136 0
DWIDTH 22 0
BBX 22 20 0 -5
BITMAP
000000
000000
000000
000000
0001C0
000380
000700
000E00
001C00
003800
007000
00E000
01C000
038000
070000
0E0000
1C0000
000000
000000
000000
ENDCHAR

STARTCHAR zero
ENCODING 48
SWIDTH 1136 0
DWIDTH 22 0
BBX 22 20 0 -5
BITMAP
000000
000000
000000
000000
01FE00
078780
0F03C0
1E01E0
1E01E0
1E01E0
1E01E0
1E01E0
0F03C0
078780
01FE00
000000
000000
000000
000000
000000
ENDCHAR

STARTCHAR one
ENCODING 49
SWIDTH 1136 0
DWIDTH 22 0
BBX 22 20 0 -5
BITMAP
000000
000000
000000
000000
01F800
1FF800
007800
007800
007800
007800
007800
007800
007800
007800
1FFFE0
000000
000000
000000
000000
000000
ENDCHAR

STARTCHAR two
ENCODING 50
SWIDTH 1136 0
DWIDTH 22 0
BBX 22 20 0 -5
BITMAP
000000
000000
000000
000000
07FFC0
1E03E0
1E01E0
0001E0
0001C0
000780
001E00
007800
01E000
0781E0
1FFFE0
000000
000000
000000
000000
000000
ENDCHAR

STARTCHAR three
ENCODING 51
SWIDTH 1136 0
DWIDTH 22 0
BBX 22 20 0 -5
BITMAP
000000
000000
000000
000000
07FFC0
1C03E0
0001E0
0001E0
0003C0
007F00
0003C0
0001E0
0001E0
1C03E0
07FFC0
000000
000000
000000
000000
000000
ENDCHAR

STARTCHAR four
ENCODING 52
SWIDTH 1136 0
DWIDTH 22 0
BBX 22 20 0 -5
BITMAP
000000
000000
000000
000000
003F80
007F80
00E780
01C780
038780
070780
0E0780
1FFFE0
000780
000780
003FE0
000000
000000
000000
000000
000000
ENDCHAR

STARTCHAR five
ENCODING 53
SWIDTH 1136 0
DWIDTH 22 0
BBX 22 20 0 -5
BITMAP
000000
000000
000000
000000
1FFF80
1E0000
1E0000
1E0000
1FFF00
1C03C0
0001E0
0001E0
0001E0
1E03C0
07FF00
000000
000000
000000
000000
000000
ENDCHAR

STARTCHAR six
ENCODING 54
SWIDTH 1136 0
DWIDTH 22 0
BBX 22 20 0 -5
BITMAP
000000
000000
000000
000000
003FE0
01F800
078000
0F0000
1E7F00
1F83C0
1E01E0
1E01E0
1E01E0
0F03C0
03FF00
000000
000000
000000
000000
000000
ENDCHAR

STARTCHAR seven
ENCODING 55
SWIDTH 1136 0
DWIDTH 22 0
BBX 22 20 0 -5
BITMAP
000000
000000
000000
000000
1FFFE0
1E03C0
000780
000700
000F00
001E00
001C00
003C00
003800
007800
00F000
000000
000000
000000
000000
000000
ENDCHAR

STARTCHAR eight
ENCODING 56
SWIDTH 1136 0
DWIDTH 22 0
BBX 22 20 0 -5
BITMAP
000000
000000
000000
000000
03FF00
0F03C0
1E01E0
1E01E0
0F03C0
03FF00
0F03C0
1E01E0
1E01E0
0F03C0
07FF80
000000
000000
000000
000000
000000
ENDCHAR

STARTCHAR nine
ENCODING 57
SWIDTH 1136 0
DWIDTH 22 0
BBX 22 20 0 -5
BITMAP
000000
000000
000000
000000
03FF00
0F03C0
1E01E0
1E01E0
1E01E0
0F07E0
03F9E0
0003C0
000780
007E00
1FF000
000000
000000
000000
000000
000000
ENDCHAR

STARTCHAR colon
ENCODING 58
SWIDTH 1136 0
DWIDTH 22 0
BBX 22 20 0 -5
BITMAP
000000
000000
000000
000000
000000
000000
00FC00
01FE00
00FC00
000000
000000
000000
00FC00
01FE00
00FC00
000000
000000
000000
000000
000000
ENDCHAR

STARTCHAR semicolon
ENCODING 59
SWIDTH 1136 0
DWIDTH 22 0
BBX 22 20 0 -5
BITMAP
000000
000000
000000
000000
000000
000000
00FC00
01FE00
00FC00
000000
000000
000000
00F800
00F000
01E000
01E000
03C000
018000
000000
000000
ENDCHAR

STARTCHAR less
ENCODING 60
SWIDTH 1136 0
DWIDTH 22 0
BBX 22 20 0 -5
BITMAP
000000
000000
000000
000000
000000
0000F0
000FF0
00FF00
0FF000
3F0000
0FF000
00FF00
000FF0
0000F0
000000
000000
000000
000000
000000
000000
ENDCHAR

STARTCHAR equal
ENCODING 61
SWIDTH 1136 0
DWIDTH 22 0
BBX 22 20 0 -5
BITMAP
000000
000000
000000
000000
000000
000000
000000
1FFFE0
1FFFE0
000000
000000
1FFFE0
1FFFE0
000000
000000
000000
000000
000000
000000
000000
ENDCHAR

STARTCHAR greater
ENCODING 62
SWIDTH 1136 0
DWIDTH 22 0
BBX 22 20 0 -5
BITMAP
000000
000000
000000
000000
000000
3C0000
3FC000
03FC00
003FC0
0003F0
003FC0
03FC00
3FC000
3C0000
000000
000000
000000
000000
000000
000000
ENDCHAR

STARTCHAR question
ENCODING 63
SWIDTH 1136 0
DWIDTH 22 0
BBX 22 20 0 -5
BITMAP
000000
000000
000000
000000
0FFFC0
1E01E0
0001E0
0003E0
003F80
01FC00
01E000
000000
01E000
03F000
01E000
000000
000000
000000
000000
000000
ENDCHAR

STARTCHAR at
ENCODING 64
SWIDTH 1136 0
DWIDTH 22 0
BBX 22 20 0 -5
BITMAP
000000
000000
000000
07FE00
1E0380
3C01C0
3801E0
783FE0
78E1E0
79E1E0
79E1E0
79E1E0
78FFF8
3C0000
3C0000
1F00E0
07FF80
000000
000000
000000
ENDCHAR

STARTCHAR A
ENCODING 65
SWIDTH 1136 0
DWIDTH 22 0
BBX 22 20 0 -5
BITMAP
000000
000000
000000
000000
00FC00
01FE00
01CE00
03CF00
078780
070380
0F03C0
1FFFE0
1C00E0
3C00F0
FFCFFC
000000
000000
000000
000000
000000
ENDCHAR

STARTCHAR B
ENCODING 66
SWIDTH 1136 0
DWIDTH 22 0
BBX 22 20 0 -5
BITMAP
000000
000000
000000
000000
3FFF80
0F03C0
0F03C0
0F03C0
0F0380
0FFFE0
0F00F0
0F00F0
0F00F0
0F00F0
3FFFE0
000000
000000
000000
000000
000000
ENDCHAR

STARTCHAR C
ENCODING 67
SWIDTH 1136 0
DWIDTH 22 0
BBX 22 20 0 -5
BITMAP
000000
000000
000000
000000
03FE30
0F03F0
1E00F0
3C0070
3C0000
3C0000
3C0000
3C0000
1E0030
0F01E0
03FF00
000000
000000
000000
000000
000000
ENDCHAR

STARTCHAR D
ENCODING 68
SWIDTH 1136 0
DWIDTH 22 0
BBX 22 20 0 -5
BITMAP
000000
000000
000000
000000
3FFF00
0F03C0
0F01E0
0F00F0
0F00F0
0F00F0
0F00F0
0F00F0
0F01E0
0F03C0
3FFF00
000000
000000
000000
000000
000000
ENDCHAR

STARTCHAR E
ENCODING 69
SWIDTH 1136 0
DWIDTH 22 0
BBX 22 20 0 -5
BITMAP
000000
000000
000000
000000
3FFFF0
03C030
03C030
03C300
03C300
03FF00
03C300
03C330
03C030
03C030
3FFFF0
000000
000000
000000
000000
000000
ENDCHAR

STARTCHAR F
ENCODING 70
SWIDTH 1136 0
DWIDTH 22 0
BBX 22 20 0 -5
BITMAP
000000
000000
000000
000000
3FFFF0
03C030
03C030
03C300
03C300
03FF00
03C300
03C300
03C000
03C000
3FFC00
000000
000000
000000
000000
000000
ENDCHAR

STARTCHAR G
ENCODING 71
SWIDTH 1136 0
DWIDTH 22 0
BBX 22 20 0 -5
BITMAP
000000
000000
000000
000000
07FC60
1E07E0
3C01E0
7800E0
780000
780000
781FF8
7801E0
3C01E0
1E01E0
07FF80
000000
000000
000000
000000
000000
ENDCHAR

STARTCHAR H
ENCODING 72
SWIDTH 1136 0
DWIDTH 22 0
BBX 22 20 0 -5
BITMAP
000000
000000
000000
000000
3FCFF0
0F03C0
0F03C0
0F03C0
0F03C0
0FFFC0
0F03C0
0F03C0
0F03C0
0F03C0
3FCFF0
000000
000000
000000
000000
000000
ENDCHAR

STARTCHAR I
ENCODING 73
SWIDTH 1136 0
DWIDTH 22 0
BBX 22 20 0 -5
BITMAP
000000
000000
000000
000000
1FFFE0
007800
007800
007800
007800
007800
007800
007800
007800
007800
1FFFE0
000000
000000
000000
000000
000000
ENDCHAR

STARTCHAR J
ENCODING 74
SWIDTH 1136 0
DWIDTH 22 0
BBX 22 20 0 -5
BITMAP
000000
000000
000000
000000
03FFF0
000F00
000F00
000F00
000F00
000F00
300F00
300F00
380F00
3C0F00
0FFE00
000000
000000
000000
000000
000000
ENDCHAR

STARTCHAR K
ENCODING 75
SWIDTH 1136 0
DWIDTH 22 0
BBX 22 20 0 -5
BITMAP
000000
000000
000000
000000
3FCFF0
0F03C0
0F0F00
0F3C00
0FF800
0FFC00
0F1E00
0F0F00
0F0780
0F03C0
3FC3F0
000000
000000
000000
000000
000000
ENDCHAR

STARTCHAR L
ENCODING 76
SWIDTH 1136 0
DWIDTH 22 0
BBX 22 20 0 -5
BITMAP
000000
000000
000000
000000
3FFC00
03C000
03C000
03C000
03C000
03C000
03C000
03C030
03C030
03C030
3FFFF0
000000
000000
000000
000000
000000
ENDCHAR

STARTCHAR M
ENCODING 77
SWIDTH 1136 0
DWIDTH 22 0
BBX 22 20 0 -5
BITMAP
000000
000000
000000
000000
FF03FC
3F87F0
3D86F0
3CCCF0
3CCCF0
3C78F0
3C78F0
3C30F0
3C30F0
3C00F0
FF03FC
000000
000000
000000
000000
000000
ENDCHAR

STARTCHAR N
ENCODING 78
SWIDTH 1136 0
DWIDTH 22 0
BBX 22 20 0 -5
BITMAP
000000
000000
000000
000000
7F07F8
1F81E0
1EC1E0
1E61E0
1E31E0
1E19E0
1E19E0
1E0DE0
1E07E0
1E03E0
7FE1E0
000000
000000
000000
000000
000000
ENDCHAR

STARTCHAR O
ENCODING 79
SWIDTH 1136 0
DWIDTH 22 0
BBX 22 20 0 -5
BITMAP
000000
000000
000000
000000
03FF00
0F03C0
1E01E0
3C00F0
3C00F0
3C00F0
3C00F0
3C00F0
1E01E0
0F03C0
03FF00
000000
000000
000000
000000
000000
ENDCHAR

STARTCHAR P
ENCODING 80
SWIDTH 1136 0
DWIDTH 22 0
BBX 22 20 0 -5
BITMAP
000000
000000
000000
000000
3FFFE0
03C0F0
03C0F0
03C0F0
03C0F0
03C0F0
03FFE0
03C000
03C000
03C000
3FFE00
000000
000000
000000
000000
000000
ENDCHAR

STARTCHAR Q
ENCODING 81
SWIDTH 1136 0
DWIDTH 22 0
BBX 22 20 0 -5
BITMAP
000000
000000
000000
000000
07FE00
1E0780
3C03C0
7801E0
7801E0
7801E0
7801E0
7801E0
3C03C0
1E0780
07FE00
01C000
018018
07FFF8
078FE0
000000
ENDCHAR

STARTCHAR R
ENCODING 82
SWIDTH 1136 0
DWIDTH 22 0
BBX 22 20 0 -5
BITMAP
000000
000000
000000
000000
7FFFC0
1E03E0
1E01E0
1E01E0
1E03C0
1FFF00
1E0F00
1E0780
1E03C0
1E01E0
7F80F8
000000
000000
000000
000000
000000
ENDCHAR

STARTCHAR S
ENCODING 83
SWIDTH 1136 0
DWIDTH 22 0
BBX 22 20 0 -5
BITMAP
000000
000000
000000
000000
03F9E0
0F87E0
1E01E0
1E0000
0F8000
03FF80
0003E0
0001E0
1E01E0
1F87C0
1E7E00
000000
000000
000000
000000
000000
ENDCHAR

STARTCHAR T
ENCODING 84
SWIDTH 1136 0
DWIDTH 22 0
BBX 22 20 0 -5
BITMAP
000000
000000
000000
000000
7FFFF8
607818
607818
607818
607818
007800
007800
007800
007800
007800
07FF80
000000
000000
000000
000000
000000
ENDCHAR

STARTCHAR U
ENCODING 85
SWIDTH 1136 0
DWIDTH 22 0
BBX 22 20 0 -5
BITMAP
000000
000000
000000
000000
7F87F8
1E01E0
1E01E0
1E01E0
1E01E0
1E01E0
1E01E0
1E01E0
0E01C0
0F03C0
03FF00
000000
000000
000000
000000
000000
ENDCHAR

STARTCHAR V
ENCODING 86
SWIDTH 1136 0
DWIDTH 22 0
BBX 22 20 0 -5
BITMAP
000000
000000
000000
000000
FF03FC
3C00F0
1E01E0
0F03C0
070380
078780
03CF00
01CE00
00FC00
007800
003000
000000
000000
000000
000000
000000
ENDCHAR

STARTCHAR W
ENCODING 87
SWIDTH 1136 0
DWIDTH 22 0
BBX 22 20 0 -5
BITMAP
000000
000000
000000
000000
FF87FC
3C00F0
3C00F0
3C30F0
3C30F0
1C78E0
1CFCE0
1DCEE0
1F87E0
0F03C0
0E01C0
000000
000000
000000
000000
000000
ENDCHAR

STARTCHAR X
ENCODING 88
SWIDTH 1136 0
DWIDTH 22 0
BBX 22 20 0 -5
BITMAP
000000
000000
000000
000000
3FCFF0
0F03C0
078780
03CF00
01FE00
00FC00
01FE00
03CF00
078780
0F03C0
3FCFF0
000000
000000
000000
000000
000000
ENDCHAR

STARTCHAR Y
ENCODING 89
SWIDTH 1136 0
DWIDTH 22 0
BBX 22 20 0 -5
BITMAP
000000
000000
000000
000000
7F87F8
1E01E0
0F03C0
078780
03CF00
01FE00
00FC00
007800
007800
007800
07FF80
000000
000000
000000
000000
000000
ENDCHAR

STARTCHAR Z
ENCODING 90
SWIDTH 1136 0
DWIDTH 22 0
BBX 22 20 0 -5
BITMAP
000000
000000
000000
000000
0FFFC0
0C03C0
0C0780
001F00
003E00
007C00
00F000
03E000
07C060
1F8060
1FFFE0
000000
000000
000000
000000
000000
ENDCHAR

STARTCHAR bracketleft
ENCODING 91
SWIDTH 1136 0
DWIDTH 22 0
BBX 22 20 0 -5
BITMAP
000000
000000
000000
01FE00
01E000
01E000
01E000
01E000
01E000
01E000
01E000
01E000
01E000
01E000
01E000
01E000
01FE00
000000
000000
000000
ENDCHAR

STARTCHAR backslash
ENCODING 92
SWIDTH 1136 0
DWIDTH 22 0
BBX 22 20 0 -5
BITMAP
000000
000000
000000
000000
1C0000
0E0000
070000
038000
01C000
00E000
007000
003800
001C00
000E00
000700
000380
0001C0
000000
000000
000000
ENDCHAR

STARTCHAR bracketright
ENCODING 93
SWIDTH 1136 0
DWIDTH 22 0
BBX 22 20 0 -5
BITMAP
000000
000000
000000
01FE00
001E00
001E00
001E00
001E00
001E00
001E00
001E00
001E00
001E00
001E00
001E00
001E00
01FE00
000000
000000
000000
ENDCHAR

STARTCHAR asciicircum
ENCODING 94
SWIDTH 1136 0
DWIDTH 22 0
BBX 22 20 0 -5
BITMAP
000000
000000
003000
00FC00
03CF00
0F03C0
000000
000000
000000
000000
000000
000000
000000
000000
000000
000000
000000
000000
000000
000000
ENDCHAR

STARTCHAR underscore
ENCODING 95
SWIDTH 1136 0
DWIDTH 22 0
BBX 22 20 0 -5
BITMAP
000000
000000
000000
000000
000000
000000
000000
000000
000000
000000
000000
000000
000000
3FFFFC
3FFFFC
000000
000000
000000
000000
000000
ENDCHAR

STARTCHAR quoteleft
ENCODING 96
SWIDTH 1136 0
DWIDTH 22 0
BBX 22 20 0 -5
BITMAP
000000
000000
01F000
00F000
007800
003C00
001800
000000
000000
000000
000000
000000
000000
000000
000000
000000
000000
000000
000000
000000
ENDCHAR

STARTCHAR a
ENCODING 97
SWIDTH 1136 0
DWIDTH 22 0
BBX 22 20 0 -5
BITMAP
000000
000000
000000
000000
000000
000000
07FF80
1E03C0
0003C0
07FFC0
1E03C0
3C03C0
3C03C0
3E0FC0
1FF3F0
000000
000000
000000
000000
000000
ENDCHAR

STARTCHAR b
ENCODING 98
SWIDTH 1136 0
DWIDTH 22 0
BBX 22 20 0 -5
BITMAP
000000
000000
000000
3F0000
0F0000
0F0000
0F3F80
0FC3E0
0F01E0
0F00F0
0F00F0
0F00F0
0F01E0
0FC3E0
3F3F80
000000
000000
000000
000000
000000
ENDCHAR

STARTCHAR c
ENCODING 99
SWIDTH 1136 0
DWIDTH 22 0
BBX 22 20 0 -5
BITMAP
000000
000000
000000
000000
000000
000000
01FE60
0783E0
0F00E0
1E00E0
1E0000
1E0000
0F0060
0781C0
01FF00
000000
000000
000000
000000
000000
ENDCHAR

STARTCHAR d
ENCODING 100
SWIDTH 1136 0
DWIDTH 22 0
BBX 22 20 0 -5
BITMAP
000000
000000
000000
003FC0
0003C0
0003C0
07F3C0
1F0FC0
1E03C0
3C03C0
3C03C0
3C03C0
1E03C0
1F0FC0
07F3F0
000000
000000
000000
000000
000000
ENDCHAR

STARTCHAR e
ENCODING 101
SWIDTH 1136 0
DWIDTH 22 0
BBX 22 20 0 -5
BITMAP
000000
000000
000000
000000
000000
000000
03FF00
0F03C0
1E01E0
3C00F0
3FFFF0
3C0000
1E0000
0F00F0
03FF80
000000
000000
000000
000000
000000
ENDCHAR

STARTCHAR f
ENCODING 102
SWIDTH 1136 0
DWIDTH 22 0
BBX 22 20 0 -5
BITMAP
000000
000000
000000
00FFF0
03C000
03C000
3FFFC0
03C000
03C000
03C000
03C000
03C000
03C000
03C000
3FFFC0
000000
000000
000000
000000
000000
ENDCHAR

STARTCHAR g
ENCODING 103
SWIDTH 1136 0
DWIDTH 22 0
BBX 22 20 0 -5
BITMAP
000000
000000
000000
000000
000000
000000
07F3F0
1F0FC0
1E03C0
3C03C0
3C03C0
3C03C0
1E03C0
1F0FC0
07F3C0
0003C0
0003C0
0FFF00
000000
000000
ENDCHAR

STARTCHAR h
ENCODING 104
SWIDTH 1136 0
DWIDTH 22 0
BBX 22 20 0 -5
BITMAP
000000
000000
000000
3F0000
0F0000
0F0000
0F0000
0F3F00
0FC780
0F03C0
0F03C0
0F03C0
0F03C0
0F03C0
3FCFF0
000000
000000
000000
000000
000000
ENDCHAR

STARTCHAR i
ENCODING 105
SWIDTH 1139 0
DWIDTH 22 0
BBX 22 20 0 -5
BITMAP
000000
000000
007800
007800
000000
000000
07F800
007800
007800
007800
007800
007800
007800
007800
1FFFE0
000000
000000
000000
000000
000000
ENDCHAR

STARTCHAR j
ENCODING 106
SWIDTH 1136 0
DWIDTH 22 0
BBX 22 20 0 -5
BITMAP
000000
000000
000780
000780
000000
000000
07FF80
000780
000780
000780
000780
000780
000780
000780
000780
000780
000780
07FF00
000000
000000
ENDCHAR

STARTCHAR k
ENCODING 107
SWIDTH 1136 0
DWIDTH 22 0
BBX 22 20 0 -5
BITMAP
000000
000000
000000
3F0000
0F0000
0F0000
0F1FF0
0F0780
0F1E00
0F3800
0FFC00
0FCE00
0F0700
0F03C0
3F0FF0
000000
000000
000000
000000
000000
ENDCHAR

STARTCHAR l
ENCODING 108
SWIDTH 1136 0
DWIDTH 22 0
BBX 22 20 0 -5
BITMAP
000000
000000
000000
0FF000
00F000
00F000
00F000
00F000
00F000
00F000
00F000
00F000
00F000
00F000
3FFFE0
000000
000000
000000
000000
000000
ENDCHAR

STARTCHAR m
ENCODING 109
SWIDTH 1136 0
DWIDTH 22 0
BBX 22 20 0 -5
BITMAP
000000
000000
000000
000000
000000
000000
77E7E0
7CFCF0
787878
787878
787878
787878
787878
787878
787878
000000
000000
000000
000000
000000
ENDCHAR

STARTCHAR n
ENCODING 110
SWIDTH 1136 0
DWIDTH 22 0
BBX 22 20 0 -5
BITMAP
000000
000000
000000
000000
000000
000000
3F3F00
0FC780
0F03C0
0F03C0
0F03C0
0F03C0
0F03C0
0F03C0
3FCFF0
000000
000000
000000
000000
000000
ENDCHAR

STARTCHAR o
ENCODING 111
SWIDTH 1136 0
DWIDTH 22 0
BBX 22 20 0 -5
BITMAP
000000
000000
000000
000000
000000
000000
03FF00
0F03C0
1E01E0
3C00F0
3C00F0
3C00F0
1E01E0
0F03C0
03FF00
000000
000000
000000
000000
000000
ENDCHAR

STARTCHAR p
ENCODING 112
SWIDTH 1136 0
DWIDTH 22 0
BBX 22 20 0 -5
BITMAP
000000
000000
000000
000000
000000
000000
3F3F80
0FC3E0
0F01E0
0F00F0
0F00F0
0F00F0
0F01E0
0FC3E0
0F3F80
0F0000
0F0000
3FF000
000000
000000
ENDCHAR

STARTCHAR q
ENCODING 113
SWIDTH 1136 0
DWIDTH 22 0
BBX 22 20 0 -5
BITMAP
000000
000000
000000
000000
000000
000000
07F3F0
1F0FC0
1E03C0
3C03C0
3C03C0
3C03C0
1E03C0
1F0FC0
07F3C0
0003C0
0003C0
003FF0
000000
000000
ENDCHAR

STARTCHAR r
ENCODING 114
SWIDTH 1136 0
DWIDTH 22 0
BBX 22 20 0 -5
BITMAP
000000
000000
000000
000000
000000
000000
3FC7F0
03F8F0
03C000
03C000
03C000
03C000
03C000
03C000
3FFF00
000000
000000
000000
000000
000000
ENDCHAR

STARTCHAR s
ENCODING 115
SWIDTH 1136 0
DWIDTH 22 0
BBX 22 20 0 -5
BITMAP
000000
000000
000000
000000
000000
000000
07F9E0
1E07E0
1E01E0
1E0000
07FF80
0001E0
1E01E0
1F81E0
1E7F80
000000
000000
000000
000000
000000
ENDCHAR

STARTCHAR t
ENCODING 116
SWIDTH 1136 0
DWIDTH 22 0
BBX 22 20 0 -5
BITMAP
000000
000000
000000
03C000
03C000
03C000
3FFFC0
03C000
03C000
03C000
03C000
03C000
03C000
03C070
01FF80
000000
000000
000000
000000
000000
ENDCHAR

STARTCHAR u
ENCODING 117
SWIDTH 1136 0
DWIDTH 22 0
BBX 22 20 0 -5
BITMAP
000000
000000
000000
000000
000000
000000
3F0FC0
0F03C0
0F03C0
0F03C0
0F03C0
0F03C0
0F03C0
0F8FC0
03F3F0
000000
000000
000000
000000
000000
ENDCHAR

STARTCHAR v
ENCODING 118
SWIDTH 1136 0
DWIDTH 22 0
BBX 22 20 0 -5
BITMAP
000000
000000
000000
000000
000000
000000
7F87F8
1E01E0
0F03C0
070380
038700
03CF00
01FE00
00FC00
007800
000000
000000
000000
000000
000000
ENDCHAR

STARTCHAR w
ENCODING 119
SWIDTH 1136 0
DWIDTH 22 0
BBX 22 20 0 -5
BITMAP
000000
000000
000000
000000
000000
000000
FF03FC
700038
783078
383070
3C78F0
1CFCE0
1FCFE0
0F87C0
0F03C0
000000
000000
000000
000000
000000
ENDCHAR

STARTCHAR x
ENCODING 120
SWIDTH 1136 0
DWIDTH 22 0
BBX 22 20 0 -5
BITMAP
000000
000000
000000
000000
000000
000000
3FCFF0
0F03C0
03CF00
01CE00
00FC00
03CF00
038700
0F03C0
3FCFF0
000000
000000
000000
000000
000000
ENDCHAR

STARTCHAR y
ENCODING 121
SWIDTH 1136 0
DWIDTH 22 0
BBX 22 20 0 -5
BITMAP
000000
000000
000000
000000
000000
000000
7F87F8
1E01E0
0F03C0
070380
038700
03CE00
01DE00
00FC00
00F800
007000
00E000
1FF800
000000
000000
ENDCHAR

STARTCHAR z
ENCODING 122
SWIDTH 1136 0
DWIDTH 22 0
BBX 22 20 0 -5
BITMAP
000000
000000
000000
000000
000000
000000
0FFFC0
0C03C0
0C0F80
001E00
007C00
00F000
03E0C0
0F80C0
0FFFC0
000000
000000
000000
000000
000000
ENDCHAR

STARTCHAR braceleft
ENCODING 123
SWIDTH 1136 0
DWIDTH 22 0
BBX 22 20 0 -5
BITMAP
000000
000000
003F80
007800
007800
007800
007800
007800
00F000
07C000
00F000
007800
007800
007800
007800
007800
003F80
000000
000000
000000
ENDCHAR

STARTCHAR bar
ENCODING 124
SWIDTH 1136 0
DWIDTH 22 0
BBX 22 20 0 -5
BITMAP
000000
000000
007800
007800
007800
007800
007800
007800
007800
007800
007800
007800
007800
007800
007800
007800
007800
007800
000000
000000
ENDCHAR

STARTCHAR braceright
ENCODING 125
SWIDTH 1136 0
DWIDTH 22 0
BBX 22 20 0 -5
BITMAP
000000
000000
07F000
007800
007800
007800
007800
007800
003C00
000F80
003C00
007800
007800
007800
007800
007800
07F000
000000
000000
000000
ENDCHAR

STARTCHAR asciitilde
ENCODING 126
SWIDTH 1136 0
DWIDTH 22 0
BBX 22 20 0 -5
BITMAP
000000
000000
07E0C0
0FFFC0
0C1F80
000000
000000
000000
000000
000000
000000
000000
000000
000000
000000
000000
000000
000000
000000
000000
ENDCHAR

STARTCHAR space
ENCODING 160
SWIDTH 1136 0
DWIDTH 22 0
BBX 22 20 0 -5
BITMAP
000000
000000
000000
000000
000000
000000
000000
000000
000000
000000
000000
000000
000000
000000
000000
000000
000000
000000
000000
000000
ENDCHAR

STARTCHAR Aogonek
ENCODING 161
SWIDTH 1136 0
DWIDTH 22 0
BBX 22 20 0 -5
BITMAP
000000
000000
000000
000000
00FC00
01FE00
01CE00
03CF00
078780
070380
0F03C0
1FFFE0
1C00E0
3C00F0
FFCFFC
0003E0
00078C
0003F8
000000
000000
ENDCHAR

STARTCHAR breve
ENCODING 162
SWIDTH 1136 0
DWIDTH 22 0
BBX 22 20 0 -5
BITMAP
078780
03CF00
00FC00
000000
000000
000000
000000
000000
000000
000000
000000
000000
000000
000000
000000
000000
000000
000000
000000
000000
ENDCHAR

STARTCHAR Lslash
ENCODING 163
SWIDTH 1136 0
DWIDTH 22 0
BBX 22 20 0 -5
BITMAP
000000
000000
000000
000000
3FFC00
03C000
03C000
03C800
03F800
0FF000
1FC000
13C030
03C030
03C030
3FFFF0
000000
000000
000000
000000
000000
ENDCHAR

STARTCHAR currency
ENCODING 164
SWIDTH 1136 0
DWIDTH 22 0
BBX 22 20 0 -5
BITMAP
000000
000000
000000
000000
000000
000000
780078
1FFFE0
070380
060180
060180
070380
1FFFE0
780078
000000
000000
000000
000000
000000
000000
ENDCHAR

STARTCHAR Lcaron
ENCODING 165
SWIDTH 1136 0
DWIDTH 22 0
BBX 22 20 0 -5
BITMAP
000000
000000
000000
000000
3FFDE0
03C3F0
03C1E0
03C780
03C000
03C000
03C000
03C030
03C030
03C030
3FFFF0
000000
000000
000000
000000
000000
ENDCHAR

STARTCHAR Sacute
ENCODING 166
SWIDTH 1136 0
DWIDTH 22 0
BBX 22 20 0 -5
BITMAP
000FC0
003E00
00F000
000000
03F9E0
0F87E0
1E01E0
1E0000
0F8000
03FF80
0003E0
0001E0
1E01E0
1F87C0
1E7E00
000000
000000
000000
000000
000000
ENDCHAR

STARTCHAR section
ENCODING 167
SWIDTH 1136 0
DWIDTH 22 0
BBX 22 20 0 -5
BITMAP
000000
000000
000000
000000
03FFC0
0F03C0
0F03C0
3FC000
30F800
3C1F00
1F03C0
03E0F0
007C30
000F70
0F03E0
0F03C0
0FFF00
000000
000000
000000
ENDCHAR

STARTCHAR dieresis
ENCODING 168
SWIDTH 1136 0
DWIDTH 22 0
BBX 22 20 0 -5
BITMAP
000000
000000
0F03C0
0F03C0
000000
000000
000000
000000
000000
000000
000000
000000
000000
000000
000000
000000
000000
000000
000000
000000
ENDCHAR

STARTCHAR Scaron
ENCODING 169
SWIDTH 1136 0
DWIDTH 22 0
BBX 22 20 0 -5
BITMAP
07CF80
01FE00
007800
000000
03F9E0
0F87E0
1E01E0
1E0000
0F8000
03FF80
0003E0
0001E0
1E01E0
1F87C0
1E7E00
000000
000000
000000
000000
000000
ENDCHAR

STARTCHAR Scommaaccent
ENCODING 170
SWIDTH 1136 0
DWIDTH 22 0
BBX 22 20 0 -5
BITMAP
000000
000000
000000
000000
03F9E0
0F87E0
1E01E0
1E0000
0F8000
03FF80
0003E0
0001E0
1E01E0
1F87C0
1E7E00
000000
007800
00FC00
007800
01E000
ENDCHAR

STARTCHAR Tcaron
ENCODING 171
SWIDTH 1136 0
DWIDTH 22 0
BBX 22 20 0 -5
BITMAP
07CF80
01FE00
007800
000000
7FFFF8
607818
607818
607818
607818
007800
007800
007800
007800
007800
07FF80
000000
000000
000000
000000
000000
ENDCHAR

STARTCHAR Zacute
ENCODING 172
SWIDTH 1136 0
DWIDTH 22 0
BBX 22 20 0 -5
BITMAP
001F80
007C00
01E000
000000
0FFFC0
0C03C0
0C0780
001F00
003E00
007C00
00F000
03E000
07C060
1F8060
1FFFE0
000000
000000
000000
000000
000000
ENDCHAR

STARTCHAR hyphen
ENCODING 173
SWIDTH 1136 0
DWIDTH 22 0
BBX 22 20 0 -5
BITMAP
000000
000000
000000
000000
000000
000000
000000
000000
000000
3FFFF0
3FFFF0
000000
000000
000000
000000
000000
000000
000000
000000
000000
ENDCHAR

STARTCHAR Zcaron
ENCODING 174
SWIDTH 1136 0
DWIDTH 22 0
BBX 22 20 0 -5
BITMAP
07CF80
01FE00
007800
000000
0FFFC0
0C03C0
0C0780
001F00
003E00
007C00
00F000
03E000
07C060
1F8060
1FFFE0
000000
000000
000000
000000
000000
ENDCHAR

STARTCHAR Zdotaccent
ENCODING 175
SWIDTH 1136 0
DWIDTH 22 0
BBX 22 20 0 -5
BITMAP
000000
007800
007800
000000
0FFFC0
0C03C0
0C0780
001F00
003E00
007C00
00F000
03E000
07C060
1F8060
1FFFE0
000000
000000
000000
000000
000000
ENDCHAR

STARTCHAR degree
ENCODING 176
SWIDTH 1136 0
DWIDTH 22 0
BBX 22 20 0 -5
BITMAP
000000
000000
01FE00
078780
070380
070380
078F00
01FC00
000000
000000
000000
000000
000000
000000
000000
000000
000000
000000
000000
000000
ENDCHAR

STARTCHAR aogonek
ENCODING 177
SWIDTH 1136 0
DWIDTH 22 0
BBX 22 20 0 -5
BITMAP
000000
000000
000000
000000
000000
000000
07FF80
1E03C0
0003C0
07FFC0
1E03C0
3C03C0
3C03C0
3E0FC0
1FF3F0
000F80
001E30
000FE0
000000
000000
ENDCHAR

STARTCHAR ogonek
ENCODING 178
SWIDTH 1136 0
DWIDTH 22 0
BBX 22 20 0 -5
BITMAP
000000
000000
000000
000000
000000
000000
000000
000000
000000
000000
000000
000000
000000
000000
000000
00F800
01E300
00FE00
000000
000000
ENDCHAR

STARTCHAR lslash
ENCODING 179
SWIDTH 1136 0
DWIDTH 22 0
BBX 22 20 0 -5
BITMAP
000000
000000
000000
0FF000
00F000
00F000
00F000
00F100
00FF00
01F800
0FF000
08F000
00F000
00F000
3FFFE0
000000
000000
000000
000000
000000
ENDCHAR

STARTCHAR acute
ENCODING 180
SWIDTH 1136 0
DWIDTH 22 0
BBX 22 20 0 -5
BITMAP
000000
000000
003F00
00F800
03C000
000000
000000
000000
000000
000000
000000
000000
000000
000000
000000
000000
000000
000000
000000
000000
ENDCHAR

STARTCHAR lcaron
ENCODING 181
SWIDTH 1136 0
DWIDTH 22 0
BBX 22 20 0 -5
BITMAP
000000
000000
000000
0FF1E0
00F3F0
00F1E0
00F780
00F000
00F000
00F000
00F000
00F000
00F000
00F000
3FFFE0
000000
000000
000000
000000
000000
ENDCHAR

STARTCHAR sacute
ENCODING 182
SWIDTH 1136 0
DWIDTH 22 0
BBX 22 20 0 -5
BITMAP
000000
001F80
007C00
01E000
000000
000000
07F9E0
1E07E0
1E01E0
1E0000
07FF80
0001E0
1E01E0
1F81E0
1E7F80
000000
000000
000000
000000
000000
ENDCHAR

STARTCHAR caron
ENCODING 183
SWIDTH 1136 0
DWIDTH 22 0
BBX 22 20 0 -5
BITMAP
000000
000000
03CF00
00FC00
003000
000000
000000
000000
000000
000000
000000
000000
000000
000000
000000
000000
000000
000000
000000
000000
ENDCHAR

STARTCHAR commaaccent
ENCODING 184
SWIDTH 1136 0
DWIDTH 22 0
BBX 22 20 0 -5
BITMAP
000000
000000
000000
000000
000000
000000
000000
000000
000000
000000
000000
000000
000000
000000
000000
000000
007800
00FC00
007800
01E000
ENDCHAR

STARTCHAR scaron
ENCODING 185
SWIDTH 1136 0
DWIDTH 22 0
BBX 22 20 0 -5
BITMAP
000000
079E00
01F800
006000
000000
000000
07F9E0
1E07E0
1E01E0
1E0000
07FF80
0001E0
1E01E0
1F81E0
1E7F80
000000
000000
000000
000000
000000
ENDCHAR

STARTCHAR scommaaccent
ENCODING 186
SWIDTH 1136 0
DWIDTH 22 0
BBX 22 20 0 -5
BITMAP
000000
000000
000000
000000
000000
000000
07F9E0
1E07E0
1E01E0
1E0000
07FF80
0001E0
1E01E0
1F81E0
1E7F80
000000
007800
00FC00
007800
01E000
ENDCHAR

STARTCHAR tcaron
ENCODING 187
SWIDTH 1136 0
DWIDTH 22 0
BBX 22 20 0 -5
BITMAP
000000
000000
000780
03CFC0
03C780
03DE00
3FFFC0
03C000
03C000
03C000
03C000
03C000
03C000
03C070
01FF80
000000
000000
000000
000000
000000
ENDCHAR

STARTCHAR zacute
ENCODING 188
SWIDTH 1136 0
DWIDTH 22 0
BBX 22 20 0 -5
BITMAP
000000
001F80
007C00
01E000
000000
000000
0FFFC0
0C03C0
0C0F80
001E00
007C00
00F000
03E0C0
0F80C0
0FFFC0
000000
000000
000000
000000
000000
ENDCHAR

STARTCHAR hungarumlaut
ENCODING 189
SWIDTH 1136 0
DWIDTH 22 0
BBX 22 20 0 -5
BITMAP
000000
000000
03F3F0
0F8F80
3C3C00
000000
000000
000000
000000
000000
000000
000000
000000
000000
000000
000000
000000
000000
000000
000000
ENDCHAR

STARTCHAR zcaron
ENCODING 190
SWIDTH 1136 0
DWIDTH 22 0
BBX 22 20 0 -5
BITMAP
000000
03CF00
00FC00
003000
000000
000000
0FFFC0
0C03C0
0C0F80
001E00
007C00
00F000
03E0C0
0F80C0
0FFFC0
000000
000000
000000
000000
000000
ENDCHAR

STARTCHAR zdotaccent
ENCODING 191
SWIDTH 1136 0
DWIDTH 22 0
BBX 22 20 0 -5
BITMAP
000000
000000
007800
007800
000000
000000
0FFFC0
0C03C0
0C0F80
001E00
007C00
00F000
03E0C0
0F80C0
0FFFC0
000000
000000
000000
000000
000000
ENDCHAR

STARTCHAR Racute
ENCODING 192
SWIDTH 1136 0
DWIDTH 22 0
BBX 22 20 0 -5
BITMAP
001F80
007C00
01E000
000000
7FFFC0
1E03E0
1E01E0
1E01E0
1E03C0
1FFF00
1E0F00
1E0780
1E03C0
1E01E0
7F80F8
000000
000000
000000
000000
000000
ENDCHAR

STARTCHAR Aacute
ENCODING 193
SWIDTH 1136 0
DWIDTH 22 0
BBX 22 20 0 -5
BITMAP
001F80
007C00
01E000
000000
00FC00
01FE00
01CE00
03CF00
078780
070380
0F03C0
1FFFE0
1C00E0
3C00F0
FFCFFC
000000
000000
000000
000000
000000
ENDCHAR

STARTCHAR Acircumflex
ENCODING 194
SWIDTH 1136 0
DWIDTH 22 0
BBX 22 20 0 -5
BITMAP
007800
01FE00
07CF80
000000
00FC00
01FE00
01CE00
03CF00
078780
070380
0F03C0
1FFFE0
1C00E0
3C00F0
FFCFFC
000000
000000
000000
000000
000000
ENDCHAR

STARTCHAR Abreve
ENCODING 195
SWIDTH 1136 0
DWIDTH 22 0
BBX 22 20 0 -5
BITMAP
078780
03CF00
00FC00
000000
00FC00
01FE00
01CE00
03CF00
078780
070380
0F03C0
1FFFE0
1C00E0
3C00F0
FFCFFC
000000
000000
000000
000000
000000
ENDCHAR

STARTCHAR Adieresis
ENCODING 196
SWIDTH 1136 0
DWIDTH 22 0
BBX 22 20 0 -5
BITMAP
0F03C0
0F03C0
000000
000000
00FC00
01FE00
01CE00
03CF00
078780
070380
0F03C0
1FFFE0
1C00E0
3C00F0
FFCFFC
000000
000000
000000
000000
000000
ENDCHAR

STARTCHAR Lacute
ENCODING 197
SWIDTH 1136 0
DWIDTH 22 0
BBX 22 20 0 -5
BITMAP
003F00
00F800
03C000
000000
3FFC00
03C000
03C000
03C000
03C000
03C000
03C000
03C030
03C030
03C030
3FFFF0
000000
000000
000000
000000
000000
ENDCHAR

STARTCHAR Cacute
ENCODING 198
SWIDTH 1136 0
DWIDTH 22 0
BBX 22 20 0 -5
BITMAP
0007C0
001F00
007800
000000
03FE30
0F03F0
1E00F0
3C0070
3C0000
3C0000
3C0000
3C0000
1E0030
0F01E0
03FF00
000000
000000
000000
000000
000000
ENDCHAR

STARTCHAR Ccedilla
ENCODING 199
SWIDTH 1136 0
DWIDTH 22 0
BBX 22 20 0 -5
BITMAP
000000
000000
000000
000000
03FE30
0F03F0
1E00F0
3C0070
3C0000
3C0000
3C0000
3C0000
1E0030
0F01E0
03FF00
003000
003F80
0003C0
0303C0
01FF80
ENDCHAR

STARTCHAR Ccaron
ENCODING 200
SWIDTH 1136 0
DWIDTH 22 0
BBX 22 20 0 -5
BITMAP
07CF80
01FE00
007800
000000
03FE30
0F03F0
1E00F0
3C0070
3C0000
3C0000
3C0000
3C0000
1E0030
0F01E0
03FF00
000000
000000
000000
000000
000000
ENDCHAR

STARTCHAR Eacute
ENCODING 201
SWIDTH 1136 0
DWIDTH 22 0
BBX 22 20 0 -5
BITMAP
0007E0
001F00
007800
000000
3FFFF0
03C030
03C030
03C300
03C300
03FF00
03C300
03C330
03C030
03C030
3FFFF0
000000
000000
000000
000000
000000
ENDCHAR

STARTCHAR Eogonek
ENCODING 202
SWIDTH 1136 0
DWIDTH 22 0
BBX 22 20 0 -5
BITMAP
000000
000000
000000
000000
3FFFF0
03C030
03C030
03C300
03C300
03FF00
03C300
03C330
03C030
03C030
3FFFF0
0007C0
000F18
0007F0
000000
000000
ENDCHAR

STARTCHAR Edieresis
ENCODING 203
SWIDTH 1136 0
DWIDTH 22 0
BBX 22 20 0 -5
BITMAP
000000
0F03C0
0F03C0
000000
3FFFF0
03C030
03C030
03C300
03C300
03FF00
03C300
03C330
03C030
03C030
3FFFF0
000000
000000
000000
000000
000000
ENDCHAR

STARTCHAR Ecaron
ENCODING 204
SWIDTH 1136 0
DWIDTH 22 0
BBX 22 20 0 -5
BITMAP
01F3E0
007F80
001E00
000000
3FFFF0
03C030
03C030
03C300
03C300
03FF00
03C300
03C330
03C030
03C030
3FFFF0
000000
000000
000000
000000
000000
ENDCHAR

STARTCHAR Iacute
ENCODING 205
SWIDTH 1136 0
DWIDTH 22 0
BBX 22 20 0 -5
BITMAP
000FC0
003E00
00F000
000000
1FFFE0
007800
007800
007800
007800
007800
007800
007800
007800
007800
1FFFE0
000000
000000
000000
000000
000000
ENDCHAR

STARTCHAR Icircumflex
ENCODING 206
SWIDTH 1136 0
DWIDTH 22 0
BBX 22 20 0 -5
BITMAP
007800
01FE00
07CF80
000000
1FFFE0
007800
007800
007800
007800
007800
007800
007800
007800
007800
1FFFE0
000000
000000
000000
000000
000000
ENDCHAR

STARTCHAR Dcaron
ENCODING 207
SWIDTH 1136 0
DWIDTH 22 0
BBX 22 20 0 -5
BITMAP
07CF80
01FE00
007800
000000
3FFF00
0F03C0
0F01E0
0F00F0
0F00F0
0F00F0
0F00F0
0F00F0
0F01E0
0F03C0
3FFF00
000000
000000
000000
000000
000000
ENDCHAR

STARTCHAR Dcroat
ENCODING 208
SWIDTH 1136 0
DWIDTH 22 0
BBX 22 20 0 -5
BITMAP
000000
000000
000000
000000
3FFF00
0F03C0
0F01E0
0F00F0
0F00F0
3FF0F0
0F00F0
0F00F0
0F01E0
0F03C0
3FFF00
000000
000000
000000
000000
000000
ENDCHAR

STARTCHAR Nacute
ENCODING 209
SWIDTH 1136 0
DWIDTH 22 0
BBX 22 20 0 -5
BITMAP
001F80
007C00
01E000
000000
7F07F8
1F81E0
1EC1E0
1E61E0
1E31E0
1E19E0
1E19E0
1E0DE0
1E07E0
1E03E0
7FE1E0
000000
000000
000000
000000
000000
ENDCHAR

STARTCHAR Ncaron
ENCODING 210
SWIDTH 1136 0
DWIDTH 22 0
BBX 22 20 0 -5
BITMAP
07CF80
01FE00
007800
000000
7F07F8
1F81E0
1EC1E0
1E61E0
1E31E0
1E19E0
1E19E0
1E0DE0
1E07E0
1E03E0
7FE1E0
000000
000000
000000
000000
000000
ENDCHAR

STARTCHAR Oacute
ENCODING 211
SWIDTH 1136 0
DWIDTH 22 0
BBX 22 20 0 -5
BITMAP
000FC0
003E00
00F000
000000
03FF00
0F03C0
1E01E0
3C00F0
3C00F0
3C00F0
3C00F0
3C00F0
1E01E0
0F03C0
03FF00
000000
000000
000000
000000
000000
ENDCHAR

STARTCHAR Ocircumflex
ENCODING 212
SWIDTH 1136 0
DWIDTH 22 0
BBX 22 20 0 -5
BITMAP
007800
01FE00
07CF80
000000
03FF00
0F03C0
1E01E0
3C00F0
3C00F0
3C00F0
3C00F0
3C00F0
1E01E0
0F03C0
03FF00
000000
000000
000000
000000
000000
ENDCHAR

STARTCHAR Ohungarumlaut
ENCODING 213
SWIDTH 1136 0
DWIDTH 22 0
BBX 22 20 0 -5
BITMAP
01F9F8
07C7C0
1E1E00
000000
03FF00
0F03C0
1E01E0
3C00F0
3C00F0
3C00F0
3C00F0
3C00F0
1E01E0
0F03C0
03FF00
000000
000000
000000
000000
000000
ENDCHAR

STARTCHAR Odieresis
ENCODING 214
SWIDTH 1136 0
DWIDTH 22 0
BBX 22 20 0 -5
BITMAP
000000
0F03C0
0F03C0
000000
03FF00
0F03C0
1E01E0
3C00F0
3C00F0
3C00F0
3C00F0
3C00F0
1E01E0
0F03C0
03FF00
000000
000000
000000
000000
000000
ENDCHAR

STARTCHAR multiply
ENCODING 215
SWIDTH 1136 0
DWIDTH 22 0
BBX 22 20 0 -5
BITMAP
000000
000000
000000
000000
000000
000000
0E01C0
0F87C0
03CF00
00FC00
00FC00
03CF00
0F87C0
0E01C0
000000
000000
000000
000000
000000
000000
ENDCHAR

STARTCHAR Rcaron
ENCODING 216
SWIDTH 1136 0
DWIDTH 22 0
BBX 22 20 0 -5
BITMAP
0F9F00
03FC00
00F000
000000
7FFFC0
1E03E0
1E01E0
1E01E0
1E03C0
1FFF00
1E0F00
1E0780
1E03C0
1E01E0
7F80F8
000000
000000
000000
000000
000000
ENDCHAR

STARTCHAR Uring
ENCODING 217
SWIDTH 1136 0
DWIDTH 22 0
BBX 22 20 0 -5
BITMAP
01FC00
03DE00
01FC00
000000
7F87F8
1E01E0
1E01E0
1E01E0
1E01E0
1E01E0
1E01E0
1E01E0
0E01C0
0F03C0
03FF00
000000
000000
000000
000000
000000
ENDCHAR

STARTCHAR Uacute
ENCODING 218
SWIDTH 1136 0
DWIDTH 22 0
BBX 22 20 0 -5
BITMAP
001F80
007C00
01E000
000000
7F87F8
1E01E0
1E01E0
1E01E0
1E01E0
1E01E0
1E01E0
1E01E0
0E01C0
0F03C0
03FF00
000000
000000
000000
000000
000000
ENDCHAR

STARTCHAR Uhungarumlaut
ENCODING 219
SWIDTH 1136 0
DWIDTH 22 0
BBX 22 20 0 -5
BITMAP
00FCFC
03E3E0
0F0F00
000000
7F87F8
1E01E0
1E01E0
1E01E0
1E01E0
1E01E0
1E01E0
1E01E0
0E01C0
0F03C0
03FF00
000000
000000
000000
000000
000000
ENDCHAR

STARTCHAR Udieresis
ENCODING 220
SWIDTH 1136 0
DWIDTH 22 0
BBX 22 20 0 -5
BITMAP
000000
0F03C0
0F03C0
000000
7F87F8
1E01E0
1E01E0
1E01E0
1E01E0
1E01E0
1E01E0
1E01E0
0E01C0
0F03C0
03FF00
000000
000000
000000
000000
000000
ENDCHAR

STARTCHAR Yacute
ENCODING 221
SWIDTH 1136 0
DWIDTH 22 0
BBX 22 20 0 -5
BITMAP
001F80
007C00
01E000
000000
7F87F8
1E01E0
0F03C0
078780
03CF00
01FE00
00FC00
007800
007800
007800
07FF80
000000
000000
000000
000000
000000
ENDCHAR

STARTCHAR Tcommaaccent
ENCODING 222
SWIDTH 1136 0
DWIDTH 22 0
BBX 22 20 0 -5
BITMAP
000000
000000
000000
000000
7FFFF8
607818
607818
607818
607818
007800
007800
007800
007800
007800
07FF80
000000
007800
00FC00
007800
01E000
ENDCHAR

STARTCHAR germandbls
ENCODING 223
SWIDTH 1136 0
DWIDTH 22 0
BBX 22 20 0 -5
BITMAP
000000
000000
000000
01FFC0
0781E0
0781E0
0781E0
0781E0
079FC0
0780F0
078078
078078
078078
078078
7F9FF0
000000
000000
000000
000000
000000
ENDCHAR

STARTCHAR racute
ENCODING 224
SWIDTH 1136 0
DWIDTH 22 0
BBX 22 20 0 -5
BITMAP
000000
0007E0
001F00
007800
000000
000000
3FC7F0
03F8F0
03C000
03C000
03C000
03C000
03C000
03C000
3FFF00
000000
000000
000000
000000
000000
ENDCHAR

STARTCHAR aacute
ENCODING 225
SWIDTH 1136 0
DWIDTH 22 0
BBX 22 20 0 -5
BITMAP
000000
001F80
007C00
01E000
000000
000000
07FF80
1E03C0
0003C0
07FFC0
1E03C0
3C03C0
3C03C0
3E0FC0
1FF3F0
000000
000000
000000
000000
000000
ENDCHAR

STARTCHAR acircumflex
ENCODING 226
SWIDTH 1136 0
DWIDTH 22 0
BBX 22 20 0 -5
BITMAP
000000
003000
00FC00
03CF00
000000
000000
07FF80
1E03C0
0003C0
07FFC0
1E03C0
3C03C0
3C03C0
3E0FC0
1FF3F0
000000
000000
000000
000000
000000
ENDCHAR

STARTCHAR abreve
ENCODING 227
SWIDTH 1136 0
DWIDTH 22 0
BBX 22 20 0 -5
BITMAP
000000
078780
03CF00
00FC00
000000
000000
07FF80
1E03C0
0003C0
07FFC0
1E03C0
3C03C0
3C03C0
3E0FC0
1FF3F0
000000
000000
000000
000000
000000
ENDCHAR

STARTCHAR adieresis
ENCODING 228
SWIDTH 1136 0
DWIDTH 22 0
BBX 22 20 0 -5
BITMAP
000000
000000
0F0F00
0F0F00
000000
000000
07FF80
1E03C0
0003C0
07FFC0
1E03C0
3C03C0
3C03C0
3E0FC0
1FF3F0
000000
000000
000000
000000
000000
ENDCHAR

STARTCHAR lacute
ENCODING 229
SWIDTH 1136 0
DWIDTH 22 0
BBX 22 20 0 -5
BITMAP
003F00
00F800
03C000
0FF000
00F000
00F000
00F000
00F000
00F000
00F000
00F000
00F000
00F000
00F000
3FFFE0
000000
000000
000000
000000
000000
ENDCHAR

STARTCHAR cacute
ENCODING 230
SWIDTH 1136 0
DWIDTH 22 0
BBX 22 20 0 -5
BITMAP
000000
000FC0
003E00
00F000
000000
000000
01FE60
0783E0
0F00E0
1E00E0
1E0000
1E0000
0F0060
0781C0
01FF00
000000
000000
000000
000000
000000
ENDCHAR

STARTCHAR ccedilla
ENCODING 231
SWIDTH 1137 0
DWIDTH 22 0
BBX 22 20 0 -5
BITMAP
000000
000000
000000
000000
000000
000000
01FE60
0783E0
0F00E0
1E00E0
1E0000
1E0000
0F0060
0781C0
01FF00
006000
007F00
000780
060780
03FF00
ENDCHAR

STARTCHAR ccaron
ENCODING 232
SWIDTH 1136 0
DWIDTH 22 0
BBX 22 20 0 -5
BITMAP
000000
03CF00
00FC00
003000
000000
000000
01FE60
0783E0
0F00E0
1E00E0
1E0000
1E0000
0F0060
0781C0
01FF00
000000
000000
000000
000000
000000
ENDCHAR

STARTCHAR eacute
ENCODING 233
SWIDTH 1136 0
DWIDTH 22 0
BBX 22 20 0 -5
BITMAP
000000
000FC0
003E00
00F000
000000
000000
03FF00
0F03C0
1E01E0
3C00F0
3FFFF0
3C0000
1E0000
0F00F0
03FF80
000000
000000
000000
000000
000000
ENDCHAR

STARTCHAR eogonek
ENCODING 234
SWIDTH 1136 0
DWIDTH 22 0
BBX 22 20 0 -5
BITMAP
000000
000000
000000
000000
000000
000000
03FF00
0F03C0
1E01E0
3C00F0
3FFFF0
3C0000
1E0000
0F00F0
03FF80
007C00
00F180
007F00
000000
000000
ENDCHAR

STARTCHAR edieresis
ENCODING 235
SWIDTH 1136 0
DWIDTH 22 0
BBX 22 20 0 -5
BITMAP
000000
000000
0F0780
0F0780
000000
000000
03FF00
0F03C0
1E01E0
3C00F0
3FFFF0
3C0000
1E0000
0F00F0
03FF80
000000
000000
000000
000000
000000
ENDCHAR

STARTCHAR ecaron
ENCODING 236
SWIDTH 1136 0
DWIDTH 22 0
BBX 22 20 0 -5
BITMAP
000000
03CF00
00FC00
003000
000000
000000
03FF00
0F03C0
1E01E0
3C00F0
3FFFF0
3C0000
1E0000
0F00F0
03FF80
000000
000000
000000
000000
000000
ENDCHAR

STARTCHAR iacute
ENCODING 237
SWIDTH 1136 0
DWIDTH 22 0
BBX 22 20 0 -5
BITMAP
000000
001F80
007C00
01E000
000000
000000
07F800
007800
007800
007800
007800
007800
007800
007800
1FFFE0
000000
000000
000000
000000
000000
ENDCHAR

STARTCHAR icircumflex
ENCODING 238
SWIDTH 1136 0
DWIDTH 22 0
BBX 22 20 0 -5
BITMAP
000000
003000
00FC00
03CF00
000000
000000
07F800
007800
007800
007800
007800
007800
007800
007800
1FFFE0
000000
000000
000000
000000
000000
ENDCHAR

STARTCHAR dcaron
ENCODING 239
SWIDTH 1136 0
DWIDTH 22 0
BBX 22 20 0 -5
BITMAP
000000
000000
000000
00FF78
000FFC
000F78
1FCFE0
7C3F00
780F00
F00F00
F00F00
F00F00
780F00
7C3F00
1FCFC0
000000
000000
000000
000000
000000
ENDCHAR

STARTCHAR dcroat
ENCODING 240
SWIDTH 1136 0
DWIDTH 22 0
BBX 22 20 0 -5
BITMAP
000000
000000
000000
003FC0
007FF0
0003C0
07F3C0
1F0FC0
1E03C0
3C03C0
3C03C0
3C03C0
1E03C0
1F0FC0
07F3F0
000000
000000
000000
000000
000000
ENDCHAR

STARTCHAR nacute
ENCODING 241
SWIDTH 1136 0
DWIDTH 22 0
BBX 22 20 0 -5
BITMAP
000000
001F80
007C00
01E000
000000
000000
3F3F00
0FC780
0F03C0
0F03C0
0F03C0
0F03C0
0F03C0
0F03C0
3FCFF0
000000
000000
000000
000000
000000
ENDCHAR

STARTCHAR ncaron
ENCODING 242
SWIDTH 1136 0
DWIDTH 22 0
BBX 22 20 0 -5
BITMAP
000000
03CF00
00FC00
003000
000000
000000
3F3F00
0FC780
0F03C0
0F03C0
0F03C0
0F03C0
0F03C0
0F03C0
3FCFF0
000000
000000
000000
000000
000000
ENDCHAR

STARTCHAR oacute
ENCODING 243
SWIDTH 1136 0
DWIDTH 22 0
BBX 22 20 0 -5
BITMAP
000000
001F80
007C00
01E000
000000
000000
03FF00
0F03C0
1E01E0
3C00F0
3C00F0
3C00F0
1E01E0
0F03C0
03FF00
000000
000000
000000
000000
000000
ENDCHAR

STARTCHAR ocircumflex
ENCODING 244
SWIDTH 1136 0
DWIDTH 22 0
BBX 22 20 0 -5
BITMAP
000000
003000
00FC00
03CF00
000000
000000
03FF00
0F03C0
1E01E0
3C00F0
3C00F0
3C00F0
1E01E0
0F03C0
03FF00
000000
000000
000000
000000
000000
ENDCHAR

STARTCHAR ohungarumlaut
ENCODING 245
SWIDTH 1136 0
DWIDTH 22 0
BBX 22 20 0 -5
BITMAP
000000
000000
01F9F8
07C7C0
1E1E00
000000
03FF00
0F03C0
1E01E0
3C00F0
3C00F0
3C00F0
1E01E0
0F03C0
03FF00
000000
000000
000000
000000
000000
ENDCHAR

STARTCHAR odieresis
ENCODING 246
SWIDTH 1136 0
DWIDTH 22 0
BBX 22 20 0 -5
BITMAP
000000
000000
0F03C0
0F03C0
000000
000000
03FF00
0F03C0
1E01E0
3C00F0
3C00F0
3C00F0
1E01E0
0F03C0
03FF00
000000
000000
000000
000000
000000
ENDCHAR

STARTCHAR divide
ENCODING 247
SWIDTH 1136 0
DWIDTH 22 0
BBX 22 20 0 -5
BITMAP
000000
000000
000000
000000
000000
007800
007800
000000
000000
1FFFE0
1FFFE0
000000
007800
007800
000000
000000
000000
000000
000000
000000
ENDCHAR

STARTCHAR rcaron
ENCODING 248
SWIDTH 1136 0
DWIDTH 22 0
BBX 22 20 0 -5
BITMAP
000000
000000
03CF00
00FC00
003000
000000
3FC7F0
03F8F0
03C000
03C000
03C000
03C000
03C000
03C000
3FFF00
000000
000000
000000
000000
000000
ENDCHAR

STARTCHAR uring
ENCODING 249
SWIDTH 1136 0
DWIDTH 22 0
BBX 22 20 0 -5
BITMAP
000000
01FC00
03DE00
01FC00
000000
000000
3F0FC0
0F03C0
0F03C0
0F03C0
0F03C0
0F03C0
0F03C0
0F8FC0
03F3F0
000000
000000
000000
000000
000000
ENDCHAR

STARTCHAR uacute
ENCODING 250
SWIDTH 1136 0
DWIDTH 22 0
BBX 22 20 0 -5
BITMAP
000000
003F00
00F800
03C000
000000
000000
3F0FC0
0F03C0
0F03C0
0F03C0
0F03C0
0F03C0
0F03C0
0F8FC0
03F3F0
000000
000000
000000
000000
000000
ENDCHAR

STARTCHAR uhungarumlaut
ENCODING 251
SWIDTH 1136 0
DWIDTH 22 0
BBX 22 20 0 -5
BITMAP
000000
01F9F8
07C7C0
1E1E00
000000
000000
3F0FC0
0F03C0
0F03C0
0F03C0
0F03C0
0F03C0
0F03C0
0F8FC0
03F3F0
000000
000000
000000
000000
000000
ENDCHAR

STARTCHAR udieresis
ENCODING 252
SWIDTH 1136 0
DWIDTH 22 0
BBX 22 20 0 -5
BITMAP
000000
000000
0F03C0
0F03C0
000000
000000
3F0FC0
0F03C0
0F03C0
0F03C0
0F03C0
0F03C0
0F03C0
0F8FC0
03F3F0
000000
000000
000000
000000
000000
ENDCHAR

STARTCHAR yacute
ENCODING 253
SWIDTH 1136 0
DWIDTH 22 0
BBX 22 20 0 -5
BITMAP
000000
001F80
007C00
01E000
000000
000000
7F87F8
1E01E0
0F03C0
070380
038700
03CE00
01DE00
00FC00
00F800
007000
00E000
1FF800
000000
000000
ENDCHAR

STARTCHAR tcommaaccent
ENCODING 254
SWIDTH 1136 0
DWIDTH 22 0
BBX 22 20 0 -5
BITMAP
000000
000000
000000
03C000
03C000
03C000
3FFFC0
03C000
03C000
03C000
03C000
03C000
03C000
03C070
01FF80
000000
001E00
003F00
001E00
007800
ENDCHAR

STARTCHAR dotaccent
ENCODING 255
SWIDTH 1136 0
DWIDTH 22 0
BBX 22 20 0 -5
BITMAP
000000
000000
007800
007800
000000
000000
000000
000000
000000
000000
000000
000000
000000
000000
000000
000000
000000
000000
000000
000000
ENDCHAR
ENDFONT
